# Blender v2.91.0 OBJ File: ''
# www.blender.org
mtllib Lake.mtl
o Plane.001
v -0.598031 0.483069 1.664597
v 0.662693 0.483069 1.827539
v 2.717615 0.483069 2.114841
v 5.427098 0.483037 0.995737
v 5.033241 0.482940 -1.516681
v 2.175257 0.483037 -2.763750
v 0.002931 0.483069 -2.169273
v -0.766684 0.483069 -0.786309
v -0.886146 0.483069 0.730920
v -1.531476 1.331315 2.069033
v 0.314935 1.359252 2.167444
v 3.069164 1.336633 2.655239
v 7.211535 1.332465 1.293141
v 6.592524 1.360855 -1.933961
v 2.374156 1.361498 -3.441620
v -0.694283 1.332473 -2.655221
v -1.717115 1.319235 -0.960943
v -1.856212 1.317516 0.896797
v -1.059334 2.137391 1.704275
v 0.460930 2.212037 1.939371
v 2.945794 2.155461 2.240038
v 6.236922 2.143011 1.017614
v 5.832276 2.227323 -1.598052
v 2.332632 2.229350 -2.887157
v -0.353293 2.139776 -2.267683
v -1.259617 2.089089 -0.814002
v -1.395842 2.083851 0.734869
v -0.540358 0.419443 1.168373
v 0.142365 0.419443 1.558635
v 3.870764 0.419438 1.599790
v 5.162084 0.419372 -0.219921
v 3.415130 0.419372 -2.113771
v 0.988951 0.419438 -2.320521
v -0.252530 0.419443 -1.346507
v -0.560797 0.419443 -0.008626
v 1.542187 0.419443 1.780356
v -1.835735 1.321068 1.638766
v -0.742767 1.348644 2.130772
v 5.338599 1.328974 2.306636
v 7.605178 1.346269 -0.307787
v 4.607770 1.366513 -3.016147
v 0.557601 1.347560 -3.252681
v -1.399114 1.323422 -1.863407
v -1.829172 1.317286 -0.008263
v 1.460865 1.351506 2.462019
v 6.574701 0.807403 1.238959
v 2.928692 0.807977 2.539582
v -1.365627 0.805802 -0.928732
v -0.436892 0.807457 -2.556971
v 6.016019 0.810793 -1.847803
v -1.189977 0.807312 1.995646
v -1.495588 0.805587 0.869221
v 2.289758 0.811033 -3.306160
v 0.446909 0.810804 2.092280
v -1.014163 2.162042 1.182811
v -0.185131 2.242699 1.627682
v 4.370360 2.191026 1.676369
v 6.014059 2.240870 -0.254705
v 3.889390 2.298964 -2.216440
v 0.847382 2.243119 -2.433080
v -0.679537 2.168450 -1.405087
v -1.027506 2.146550 -0.014934
v 1.523431 2.251757 1.904773
v -1.550543 1.833884 2.024162
v -1.879750 1.794425 0.872074
v -1.740013 1.799031 -0.946321
v 2.400000 1.914899 -3.400641
v 6.644850 1.913515 -1.910825
v 0.297410 1.906506 2.178902
v 3.084787 1.848539 2.640118
v -0.719537 1.836741 -2.633812
v 7.213614 1.837540 1.254662
v 1.529703 0.252627 0.010922
v -1.834092 1.810457 1.586141
v 4.904883 0.800740 2.197884
v -1.052769 0.800052 -1.783378
v 6.882472 0.802759 -0.287708
v -1.445314 0.799758 1.575425
v -1.445706 0.799285 -0.007528
v 4.239164 0.805289 -2.876436
v -0.476011 0.803205 2.040476
v 1.479588 0.803563 2.343433
v 0.681672 0.803063 -3.106129
v 1.525839 2.370027 0.006939
v -1.821947 1.799647 -0.010266
v 4.632277 1.935197 -2.960801
v -0.745646 1.885617 2.096686
v 1.455605 1.893496 2.449233
v 0.552860 1.883088 -3.199096
v 5.314525 1.832686 2.263170
v -1.406826 1.816820 -1.829792
v 7.603849 1.880145 -0.317142
vt 0.000000 0.000000
vt 0.000000 0.000000
vt 0.000000 0.000000
vt 0.000000 0.000000
vt 0.000000 0.000000
vt 0.000000 0.000000
vt 0.000000 0.000000
vt 0.000000 0.000000
vt 0.000000 0.000000
vt 0.000000 0.000000
vt 0.000000 0.000000
vt 0.000000 0.000000
vt 0.000000 0.000000
vt 0.000000 0.000000
vt 0.000000 0.000000
vt 0.000000 0.000000
vt 0.000000 0.000000
vt 0.000000 0.000000
vt 0.000000 0.000000
vt 0.000000 0.000000
vt 0.000000 0.000000
vt 0.000000 0.000000
vt 0.000000 0.000000
vt 0.000000 0.000000
vt 0.000000 0.000000
vt 0.000000 0.000000
vt 0.000000 0.000000
vt 0.000000 0.000000
vt 0.000000 0.000000
vt 0.000000 0.000000
vt 0.000000 0.000000
vt 0.000000 0.000000
vt 0.000000 0.000000
vt 0.000000 0.000000
vt 0.000000 0.000000
vt 0.000000 0.000000
vt 0.000000 0.000000
vt 0.000000 0.000000
vt 0.000000 0.000000
vt 0.000000 0.000000
vt 0.000000 0.000000
vt 0.000000 0.000000
vt 0.000000 0.000000
vt 0.000000 0.000000
vt 0.000000 0.000000
vt 0.000000 0.000000
vt 0.000000 0.000000
vt 0.000000 0.000000
vt 0.000000 0.000000
vt 0.000000 0.000000
vt 0.000000 0.000000
vt 0.000000 0.000000
vt 0.000000 0.000000
vt 0.000000 0.000000
vt 0.000000 0.000000
vt 0.000000 0.000000
vt 0.000000 0.000000
vt 0.000000 0.000000
vt 0.000000 0.000000
vt 0.000000 0.000000
vt 0.000000 0.000000
vt 0.000000 0.000000
vt 0.000000 0.000000
vt 0.000000 0.000000
vt 0.000000 0.000000
vt 0.000000 0.000000
vt 0.000000 0.000000
vt 0.000000 0.000000
vt 0.000000 0.000000
vt 0.000000 0.000000
vt 0.000000 0.000000
vt 0.000000 0.000000
vt 0.000000 0.000000
vt 0.000000 0.000000
vt 0.000000 0.000000
vt 0.000000 0.000000
vt 0.000000 0.000000
vt 0.000000 0.000000
vt 0.000000 0.000000
vt 0.000000 0.000000
vt 0.000000 0.000000
vt 0.000000 0.000000
vt 0.000000 0.000000
vt 0.000000 0.000000
vt 0.000000 0.000000
vt 0.000000 0.000000
vt 0.000000 0.000000
vt 0.000000 0.000000
vt 0.000000 0.000000
vt 0.000000 0.000000
vt 0.000000 0.000000
vt 0.000000 0.000000
vn -0.0457 -0.9958 0.0800
vn -0.0945 -0.9955 0.0016
vn -0.0925 -0.9955 -0.0213
vn -0.0533 -0.9963 -0.0680
vn 0.0069 -0.9967 -0.0812
vn 0.0468 -0.9980 -0.0432
vn 0.0500 -0.9981 0.0355
vn 0.0081 -0.9945 0.1044
vn -0.0185 -0.9929 0.1171
vn -0.9988 -0.0190 0.0456
vn -0.8281 0.0404 0.5591
vn -0.3998 0.9111 0.1005
vn -0.4134 0.9071 0.0785
vn 0.1092 -0.8752 0.4713
vn 0.1765 -0.9300 0.3224
vn 0.4126 -0.5335 0.7383
vn 0.1529 -0.2840 0.9465
vn -0.3574 -0.9038 -0.2353
vn -0.3818 -0.9068 -0.1787
vn -0.7820 -0.5567 -0.2803
vn -0.6676 -0.4811 -0.5683
vn 0.2379 -0.9709 0.0279
vn 0.2382 -0.9653 -0.1072
vn 0.5861 -0.7304 -0.3508
vn 0.6102 -0.7807 0.1346
vn -0.3953 -0.9149 0.0813
vn -0.3599 -0.9210 0.1492
vn -0.6940 -0.5471 0.4681
vn -0.8067 -0.5897 0.0385
vn -0.4275 -0.9040 -0.0057
vn -0.4292 -0.9012 -0.0607
vn -0.8106 -0.5847 -0.0328
vn -0.8101 -0.5800 -0.0857
vn 0.1730 -0.9309 -0.3217
vn 0.1189 -0.9046 -0.4093
vn 0.1905 -0.3083 -0.9320
vn 0.4208 -0.5103 -0.7500
vn -0.0081 -0.7600 0.6499
vn -0.1007 -0.7740 0.6251
vn -0.0425 -0.1646 0.9855
vn -0.0678 -0.1885 0.9797
vn -0.0958 -0.7704 0.6303
vn -0.0985 -0.8014 0.5900
vn -0.1245 -0.1975 0.9724
vn -0.2393 -0.2008 0.9500
vn -0.0835 -0.8833 -0.4612
vn -0.1708 -0.8879 -0.4270
vn -0.4083 -0.3396 -0.8473
vn -0.1076 -0.2516 -0.9618
vn -0.0936 0.9956 -0.0061
vn -0.0170 0.9972 0.0722
vn 0.0275 0.9966 0.0782
vn 0.0360 0.9978 0.0564
vn 0.0315 0.9995 -0.0045
vn -0.0146 0.9985 -0.0526
vn -0.0749 0.9964 -0.0389
vn -0.0978 0.9952 -0.0088
vn -0.1004 0.9949 -0.0117
vn -0.9947 -0.0149 -0.1022
vn -0.9987 -0.0183 -0.0475
vn -0.4513 0.8887 -0.0809
vn -0.4476 0.8942 0.0088
vn 0.4706 0.0295 -0.8819
vn 0.1893 0.0755 -0.9790
vn 0.1019 0.9016 -0.4205
vn 0.1675 0.9234 -0.3454
vn -0.0869 0.0736 0.9935
vn -0.0568 0.0198 0.9982
vn -0.1352 0.7889 0.5995
vn -0.0745 0.8112 0.5800
vn -0.2382 -0.0038 0.9712
vn -0.1173 0.0274 0.9927
vn -0.0620 0.8138 0.5778
vn -0.0763 0.7720 0.6311
vn -0.1067 0.0881 -0.9904
vn -0.4188 0.0533 -0.9065
vn -0.1775 0.8909 -0.4182
vn -0.0936 0.8875 -0.4512
vn 0.1592 0.0582 0.9855
vn 0.4707 0.0816 0.8785
vn 0.1668 0.9207 0.3529
vn 0.1150 0.8776 0.4653
vn -0.7536 0.0113 -0.6572
vn -0.9394 -0.0126 -0.3427
vn -0.3935 0.9006 -0.1844
vn -0.3716 0.8993 -0.2307
vn 0.9707 0.0104 0.2400
vn 0.8521 -0.0334 -0.5223
vn 0.2557 0.9623 -0.0928
vn 0.2468 0.9671 0.0623
usemtl None
s off
f 1/1/1 28/2/1 73/3/1 29/4/1
f 9/5/2 35/6/2 73/3/2 28/2/2
f 8/7/3 34/8/3 73/3/3 35/6/3
f 7/9/4 33/10/4 73/3/4 34/8/4
f 6/11/5 32/12/5 73/3/5 33/10/5
f 5/13/6 31/14/6 73/3/6 32/12/6
f 4/15/7 30/16/7 73/3/7 31/14/7
f 3/17/8 36/18/8 73/3/8 30/16/8
f 2/19/9 29/4/9 73/3/9 36/18/9
f 18/20/10 37/21/10 74/22/10 65/23/10
f 37/21/11 10/24/11 64/25/11 74/22/11
f 74/22/12 64/25/12 19/26/12 55/27/12
f 65/23/13 74/22/13 55/27/13 27/28/13
f 3/17/14 30/16/14 75/29/14 47/30/14
f 30/16/15 4/15/15 46/31/15 75/29/15
f 75/29/16 46/31/16 13/32/16 39/33/16
f 47/30/17 75/29/17 39/33/17 12/34/17
f 7/9/18 34/8/18 76/35/18 49/36/18
f 34/8/19 8/7/19 48/37/19 76/35/19
f 76/35/20 48/37/20 17/38/20 43/39/20
f 49/36/21 76/35/21 43/39/21 16/40/21
f 4/15/22 31/14/22 77/41/22 46/31/22
f 31/14/23 5/13/23 50/42/23 77/41/23
f 77/41/24 50/42/24 14/43/24 40/44/24
f 46/31/25 77/41/25 40/44/25 13/32/25
f 9/5/26 28/2/26 78/45/26 52/46/26
f 28/2/27 1/1/27 51/47/27 78/45/27
f 78/45/28 51/47/28 10/24/28 37/21/28
f 52/46/29 78/45/29 37/21/29 18/20/29
f 8/7/30 35/6/30 79/48/30 48/37/30
f 35/6/31 9/5/31 52/46/31 79/48/31
f 79/48/32 52/46/32 18/20/32 44/49/32
f 48/37/33 79/48/33 44/49/33 17/38/33
f 5/13/34 32/12/34 80/50/34 50/42/34
f 32/12/35 6/11/35 53/51/35 80/50/35
f 80/50/36 53/51/36 15/52/36 41/53/36
f 50/42/37 80/50/37 41/53/37 14/43/37
f 1/1/38 29/4/38 81/54/38 51/47/38
f 29/4/39 2/19/39 54/55/39 81/54/39
f 81/54/40 54/55/40 11/56/40 38/57/40
f 51/47/41 81/54/41 38/57/41 10/24/41
f 2/19/42 36/18/42 82/58/42 54/55/42
f 36/18/43 3/17/43 47/30/43 82/58/43
f 82/58/44 47/30/44 12/34/44 45/59/44
f 54/55/45 82/58/45 45/59/45 11/56/45
f 6/11/46 33/10/46 83/60/46 53/51/46
f 33/10/47 7/9/47 49/36/47 83/60/47
f 83/60/48 49/36/48 16/40/48 42/61/48
f 53/51/49 83/60/49 42/61/49 15/52/49
f 19/26/50 56/62/50 84/63/50 55/27/50
f 20/64/51 63/65/51 84/63/51 56/62/51
f 21/66/52 57/67/52 84/63/52 63/65/52
f 22/68/53 58/69/53 84/63/53 57/67/53
f 23/70/54 59/71/54 84/63/54 58/69/54
f 24/72/55 60/73/55 84/63/55 59/71/55
f 25/74/56 61/75/56 84/63/56 60/73/56
f 26/76/57 62/77/57 84/63/57 61/75/57
f 27/28/58 55/27/58 84/63/58 62/77/58
f 17/38/59 44/49/59 85/78/59 66/79/59
f 44/49/60 18/20/60 65/23/60 85/78/60
f 85/78/61 65/23/61 27/28/61 62/77/61
f 66/79/62 85/78/62 62/77/62 26/76/62
f 14/43/63 41/53/63 86/80/63 68/81/63
f 41/53/64 15/52/64 67/82/64 86/80/64
f 86/80/65 67/82/65 24/72/65 59/71/65
f 68/81/66 86/80/66 59/71/66 23/70/66
f 10/24/67 38/57/67 87/83/67 64/25/67
f 38/57/68 11/56/68 69/84/68 87/83/68
f 87/83/69 69/84/69 20/64/69 56/62/69
f 64/25/70 87/83/70 56/62/70 19/26/70
f 11/56/71 45/59/71 88/85/71 69/84/71
f 45/59/72 12/34/72 70/86/72 88/85/72
f 88/85/73 70/86/73 21/66/73 63/65/73
f 69/84/74 88/85/74 63/65/74 20/64/74
f 15/52/75 42/61/75 89/87/75 67/82/75
f 42/61/76 16/40/76 71/88/76 89/87/76
f 89/87/77 71/88/77 25/74/77 60/73/77
f 67/82/78 89/87/78 60/73/78 24/72/78
f 12/34/79 39/33/79 90/89/79 70/86/79
f 39/33/80 13/32/80 72/90/80 90/89/80
f 90/89/81 72/90/81 22/68/81 57/67/81
f 70/86/82 90/89/82 57/67/82 21/66/82
f 16/40/83 43/39/83 91/91/83 71/88/83
f 43/39/84 17/38/84 66/79/84 91/91/84
f 91/91/85 66/79/85 26/76/85 61/75/85
f 71/88/86 91/91/86 61/75/86 25/74/86
f 13/32/87 40/44/87 92/92/87 72/90/87
f 40/44/88 14/43/88 68/81/88 92/92/88
f 92/92/89 68/81/89 23/70/89 58/69/89
f 72/90/90 92/92/90 58/69/90 22/68/90
